<svg xmlns="http://www.w3.org/2000/svg" viewBox="0 0 104.92 18.62"><title>AupairadiseLogoBig</title><g id="Layer_2" data-name="Layer 2"><g id="Layer_1-2" data-name="Layer 1"><path d="M0,14v-.2l.5-.18a1.84,1.84,0,0,0,.62-.39,1.6,1.6,0,0,0,.36-.65L5.6.78H7.3l4.06,11.9a2.29,2.29,0,0,0,.36.67,1.58,1.58,0,0,0,.62.39l.24.08V14H7.5v-.2l.3-.1a.78.78,0,0,0,.51-.45,1.18,1.18,0,0,0,0-.69L7.34,9.7H2.9l-1,2.82a1.59,1.59,0,0,0-.09.7c0,.17.19.31.47.42l.44.18V14ZM3,9.3H7.22l-2-6.22Z"/><path d="M16.24,14.32a3.36,3.36,0,0,1-1.43-.3,2.22,2.22,0,0,1-1-1,3.54,3.54,0,0,1-.35-1.77l.06-5.14a1,1,0,0,0-.16-.66.87.87,0,0,0-.5-.28l-.24-.08v-.2l3.58-.7.2.2-.1,2.84v4.82a1.13,1.13,0,0,0,.37.94,1.44,1.44,0,0,0,.93.3,2.84,2.84,0,0,0,1-.16,3.83,3.83,0,0,0,.88-.48l.08-6.52a1.16,1.16,0,0,0-.14-.65.8.8,0,0,0-.52-.27l-.2-.06V5l3.5-.76.2.2-.06,2.84v5.42a1.56,1.56,0,0,0,.12.68.94.94,0,0,0,.52.4l.2.06V14l-3.5.2L19.48,13a7.37,7.37,0,0,1-1.43.91A4.09,4.09,0,0,1,16.24,14.32Z"/><path d="M23.82,18.62v-.2l.24-.08a.91.91,0,0,0,.74-1V6.5a1.19,1.19,0,0,0-.15-.66.79.79,0,0,0-.55-.3l-.28-.06v-.2l3.4-1.16.2.2.18.62a5.7,5.7,0,0,1,1.47-.62,6.22,6.22,0,0,1,1.67-.22,3.27,3.27,0,0,1,2.73,1.31,6,6,0,0,1,1,3.75,5.87,5.87,0,0,1-1.11,3.78,3.78,3.78,0,0,1-3.13,1.38,6.75,6.75,0,0,1-2.66-.46v3.46a.93.93,0,0,0,.72,1l.38.1v.2Zm5.46-4.88a1.78,1.78,0,0,0,1.59-1,7.48,7.48,0,0,0,.59-3.46,7.37,7.37,0,0,0-.56-3.39,1.76,1.76,0,0,0-1.62-1,3.55,3.55,0,0,0-1.64.48v8.06A4.24,4.24,0,0,0,29.28,13.74Z"/><path d="M38.18,14.32a3,3,0,0,1-2-.66,2.32,2.32,0,0,1-.79-1.9,2.25,2.25,0,0,1,1-1.73,6.87,6.87,0,0,1,3-1.19l.72-.13L41,8.56V7a4,4,0,0,0-.33-1.91,1.11,1.11,0,0,0-1-.55,1,1,0,0,0-.76.31A1.86,1.86,0,0,0,38.5,5.9l0,.22A2,2,0,0,1,38,7.38a1.23,1.23,0,0,1-.94.4,1.22,1.22,0,0,1-.86-.32,1.11,1.11,0,0,1-.34-.86,1.85,1.85,0,0,1,.57-1.38A3.61,3.61,0,0,1,38,4.38a7,7,0,0,1,2-.28A4,4,0,0,1,42.77,5a3.62,3.62,0,0,1,1,2.83v4.42q0,.9.84.9H45l.18.16a2.86,2.86,0,0,1-.83.74,2.59,2.59,0,0,1-1.27.26,2.17,2.17,0,0,1-1.39-.41A1.93,1.93,0,0,1,41,12.78a8.16,8.16,0,0,1-1.23,1.09A2.73,2.73,0,0,1,38.18,14.32ZM39.4,13.1a1.49,1.49,0,0,0,.75-.19,5.52,5.52,0,0,0,.83-.59V9l-.4.08-.46.08a3.1,3.1,0,0,0-1.47.81,2.1,2.1,0,0,0-.55,1.53,1.76,1.76,0,0,0,.38,1.23A1.22,1.22,0,0,0,39.4,13.1Z"/><path d="M45.66,14v-.2l.28-.08a.92.92,0,0,0,.55-.36,1.19,1.19,0,0,0,.15-.64V6.48a1.08,1.08,0,0,0-.15-.63.83.83,0,0,0-.55-.29l-.28-.06V5.3l3.66-1.18.2.2-.06,2.84v5.6a1.19,1.19,0,0,0,.15.64.93.93,0,0,0,.53.36l.2.06V14ZM48,3.06a1.63,1.63,0,0,1-1.15-.43,1.43,1.43,0,0,1-.47-1.09,1.42,1.42,0,0,1,.47-1.1A1.66,1.66,0,0,1,48,0a1.64,1.64,0,0,1,1.14.42,1.41,1.41,0,0,1,.46,1.1,1.42,1.42,0,0,1-.46,1.09A1.6,1.6,0,0,1,48,3.06Z"/><path d="M51.22,14v-.2l.3-.08a.92.92,0,0,0,.55-.36,1.16,1.16,0,0,0,.15-.62V6.5a1.13,1.13,0,0,0-.15-.65.83.83,0,0,0-.55-.29l-.3-.08v-.2l3.44-1.16.2.2L55,6V6.2a4.29,4.29,0,0,1,.73-1,4.11,4.11,0,0,1,1-.77,2.27,2.27,0,0,1,1.09-.3A1.53,1.53,0,0,1,59,4.52a1.46,1.46,0,0,1,.4,1.06,1.39,1.39,0,0,1-.39,1A1.29,1.29,0,0,1,58.1,7a1.85,1.85,0,0,1-1.48-.84l0,0a.65.65,0,0,0-.46-.31.53.53,0,0,0-.48.25,1.59,1.59,0,0,0-.33.43,5.12,5.12,0,0,0-.25.57v5.58a.92.92,0,0,0,.7,1l.64.18V14Z"/><path d="M62.54,14.32a3,3,0,0,1-1.95-.66,2.32,2.32,0,0,1-.79-1.9,2.25,2.25,0,0,1,1-1.73,6.87,6.87,0,0,1,3-1.19l.72-.13.84-.15V7A4,4,0,0,0,65,5.07a1.11,1.11,0,0,0-1-.55,1,1,0,0,0-.76.31,1.86,1.86,0,0,0-.36,1.07l0,.22a2,2,0,0,1-.42,1.26,1.23,1.23,0,0,1-.94.4,1.22,1.22,0,0,1-.86-.32,1.11,1.11,0,0,1-.34-.86,1.85,1.85,0,0,1,.57-1.38,3.61,3.61,0,0,1,1.51-.84,7,7,0,0,1,2-.28A4,4,0,0,1,67.13,5a3.62,3.62,0,0,1,1,2.83v4.42q0,.9.84.9h.44l.18.16a2.86,2.86,0,0,1-.83.74,2.59,2.59,0,0,1-1.27.26,2.17,2.17,0,0,1-1.39-.41,1.93,1.93,0,0,1-.67-1.09,8.16,8.16,0,0,1-1.23,1.09A2.73,2.73,0,0,1,62.54,14.32Zm1.22-1.22a1.49,1.49,0,0,0,.75-.19,5.52,5.52,0,0,0,.83-.59V9l-.4.08-.46.08A3.1,3.1,0,0,0,63,9.93a2.1,2.1,0,0,0-.55,1.53,1.76,1.76,0,0,0,.38,1.23A1.22,1.22,0,0,0,63.76,13.1Z"/><path d="M74.22,14.32a4.28,4.28,0,0,1-2.12-.53,3.68,3.68,0,0,1-1.49-1.64,6.38,6.38,0,0,1-.55-2.85,6.15,6.15,0,0,1,.62-2.91,4.14,4.14,0,0,1,1.64-1.72,4.48,4.48,0,0,1,2.22-.57,6.48,6.48,0,0,1,1.34.14A3.85,3.85,0,0,1,77,4.66V2.06a1.12,1.12,0,0,0-.13-.62.82.82,0,0,0-.55-.28L76,1.08V.88L79.6,0l.22.18L79.74,3v9.78a1.36,1.36,0,0,0,.14.65.79.79,0,0,0,.52.35l.18.06V14l-3.42.22L77,13.52a5,5,0,0,1-1.23.58A4.92,4.92,0,0,1,74.22,14.32Zm1.16-.74a2.62,2.62,0,0,0,1.54-.5V5.14a2.75,2.75,0,0,0-1.52-.48,1.94,1.94,0,0,0-1.64,1.11,6.92,6.92,0,0,0-.68,3.49,6.37,6.37,0,0,0,.64,3.35A1.92,1.92,0,0,0,75.38,13.58Z"/><path d="M81.5,14v-.2l.28-.08a.92.92,0,0,0,.55-.36,1.19,1.19,0,0,0,.15-.64V6.48a1.08,1.08,0,0,0-.15-.63.83.83,0,0,0-.55-.29L81.5,5.5V5.3l3.66-1.18.2.2L85.3,7.16v5.6a1.19,1.19,0,0,0,.15.64.93.93,0,0,0,.53.36l.2.06V14Zm2.36-11a1.63,1.63,0,0,1-1.15-.43,1.43,1.43,0,0,1-.47-1.09,1.42,1.42,0,0,1,.47-1.1A1.66,1.66,0,0,1,83.86,0,1.64,1.64,0,0,1,85,.44a1.41,1.41,0,0,1,.46,1.1A1.42,1.42,0,0,1,85,2.63,1.6,1.6,0,0,1,83.86,3.06Z"/><path d="M90.52,14.32a6.36,6.36,0,0,1-1.76-.23,7.72,7.72,0,0,1-1.44-.57l0-2.38h.2l.68,1.2a3.63,3.63,0,0,0,1,1.19,2.2,2.2,0,0,0,1.35.39,2.54,2.54,0,0,0,1.55-.43,1.37,1.37,0,0,0,.59-1.15,1.46,1.46,0,0,0-.42-1.08,3.86,3.86,0,0,0-1.56-.76l-.84-.26a4.14,4.14,0,0,1-1.92-1.12,2.64,2.64,0,0,1-.7-1.86,2.89,2.89,0,0,1,1-2.24,4.37,4.37,0,0,1,3-.92,6.3,6.3,0,0,1,1.47.17,5.53,5.53,0,0,1,1.33.51l-.12,2.16h-.2L93,5.7a2.9,2.9,0,0,0-.75-.93,1.89,1.89,0,0,0-1.11-.27,2.39,2.39,0,0,0-1.28.38A1.2,1.2,0,0,0,89.3,6,1.31,1.31,0,0,0,89.81,7a5.16,5.16,0,0,0,1.51.74l.9.26a4.1,4.1,0,0,1,2.06,1.21,2.87,2.87,0,0,1,.62,1.85,2.8,2.8,0,0,1-1.15,2.34A5.19,5.19,0,0,1,90.52,14.32Z"/><path d="M100.8,4.1a4.39,4.39,0,0,1,2.22.53,3.62,3.62,0,0,1,1.41,1.44,4.28,4.28,0,0,1,.49,2.07c0,.15,0,.3,0,.45a1.66,1.66,0,0,1-.08.41h-6a5.11,5.11,0,0,0,.77,3.11,2.67,2.67,0,0,0,2.23,1,3.56,3.56,0,0,0,1.62-.32,4,4,0,0,0,1.16-.94l.2.18a4.55,4.55,0,0,1-1.65,1.72,4.74,4.74,0,0,1-2.47.62,5.06,5.06,0,0,1-2.52-.61A4.33,4.33,0,0,1,96.48,12a5.66,5.66,0,0,1-.62-2.72,5.17,5.17,0,0,1,.72-2.79A4.84,4.84,0,0,1,98.43,4.7,5,5,0,0,1,100.8,4.1Zm-.06.4a1.48,1.48,0,0,0-1,.35,2.39,2.39,0,0,0-.64,1.24,11.1,11.1,0,0,0-.25,2.51h3.42a7.82,7.82,0,0,0-.16-3.14A1.36,1.36,0,0,0,100.74,4.5Z"/></g></g></svg>