<svg xmlns="http://www.w3.org/2000/svg" viewBox="0 0 105.52 19.25"><title>AupairadiseLogoSmalll</title><g id="Layer_2" data-name="Layer 2"><g id="Layer_1-2" data-name="Layer 1"><path d="M7.5,14.65v-.72l.5-.17c.18-.07.29-.15.32-.25a1,1,0,0,0,0-.52l-.87-2.66h-4l-.89,2.61a1.4,1.4,0,0,0-.08.55s.09.12.29.2l.63.25v.71H0v-.71l.7-.26a1.34,1.34,0,0,0,.5-.31,1.37,1.37,0,0,0,.3-.54L5.69.81H7.81l4.13,12.1a1.86,1.86,0,0,0,.31.57,1.26,1.26,0,0,0,.5.31l.43.14v.72ZM7.11,9.33l-1.62-5-1.73,5Z"/><path d="M.3,14.35v-.2L.8,14a1.84,1.84,0,0,0,.62-.39,1.67,1.67,0,0,0,.36-.65L5.9,1.11H7.6L11.66,13a2.43,2.43,0,0,0,.36.67,1.58,1.58,0,0,0,.62.39l.24.08v.2H7.8v-.2l.3-.1a.78.78,0,0,0,.51-.45,1.18,1.18,0,0,0,0-.69L7.64,10H3.2l-1,2.82a1.57,1.57,0,0,0-.09.7c0,.17.19.31.47.42l.44.18v.2Zm3-4.72H7.52l-2-6.22Z"/><path d="M16.54,15A3.67,3.67,0,0,1,15,14.62a2.5,2.5,0,0,1-1.15-1.1,3.89,3.89,0,0,1-.39-1.92l.06-5.14A.92.92,0,0,0,13.41,6a.72.72,0,0,0-.34-.17l-.47-.16V5l4-.78.4.41-.1,3v4.81a.83.83,0,0,0,.26.7,1.1,1.1,0,0,0,.74.24,2.74,2.74,0,0,0,.9-.14,4.09,4.09,0,0,0,.68-.36l.08-6.37A.87.87,0,0,0,19.46,6a.63.63,0,0,0-.34-.15l-.44-.13V5.06l3.9-.84.4.4-.06,3V13a1.23,1.23,0,0,0,.09.54.68.68,0,0,0,.36.26l.39.11v.71l-4.06.23-.14-.95a7.31,7.31,0,0,1-1.08.64A4.54,4.54,0,0,1,16.54,15Z"/><path d="M16.54,14.65a3.36,3.36,0,0,1-1.43-.3,2.27,2.27,0,0,1-1-1,3.54,3.54,0,0,1-.35-1.77l.06-5.14a1,1,0,0,0-.16-.66.82.82,0,0,0-.5-.28l-.24-.08v-.2l3.58-.7.2.2-.1,2.84v4.82a1.14,1.14,0,0,0,.37.94,1.44,1.44,0,0,0,.93.3,3.08,3.08,0,0,0,1-.16,3.83,3.83,0,0,0,.88-.48l.08-6.52a1.14,1.14,0,0,0-.14-.65.8.8,0,0,0-.52-.27L19,5.51v-.2l3.5-.76.2.2-.06,2.84V13a1.56,1.56,0,0,0,.12.68.94.94,0,0,0,.52.4l.2.06v.2l-3.5.2-.18-1.18a7.37,7.37,0,0,1-1.43.91A4.23,4.23,0,0,1,16.54,14.65Z"/><path d="M23.82,19.25v-.72l.45-.15a.62.62,0,0,0,.53-.67V6.83a.81.81,0,0,0-.1-.49.57.57,0,0,0-.36-.18l-.52-.11V5.39L27.6,4.1l.39.39.09.33a6.05,6.05,0,0,1,1.21-.46A6.37,6.37,0,0,1,31,4.13a3.58,3.58,0,0,1,3,1.42,6.39,6.39,0,0,1,1.07,3.94,6.17,6.17,0,0,1-1.18,4A4.07,4.07,0,0,1,30.54,15a7.6,7.6,0,0,1-2.36-.33v3a.63.63,0,0,0,.5.71l.6.16v.73Zm4.42-5.71a4,4,0,0,0,1.34.23,1.5,1.5,0,0,0,1.33-.89,7.31,7.31,0,0,0,.55-3.31,7.15,7.15,0,0,0-.52-3.24,1.46,1.46,0,0,0-1.36-.82,3.1,3.1,0,0,0-1.34.36Z"/><path d="M24.12,19v-.2l.24-.08a.92.92,0,0,0,.74-1V6.83A1.15,1.15,0,0,0,25,6.17a.79.79,0,0,0-.55-.3l-.28-.06v-.2l3.4-1.16.2.2.18.62a5.38,5.38,0,0,1,1.47-.62A6.22,6.22,0,0,1,31,4.43a3.24,3.24,0,0,1,2.73,1.31,6,6,0,0,1,1,3.75,5.87,5.87,0,0,1-1.11,3.78,3.78,3.78,0,0,1-3.13,1.38,6.93,6.93,0,0,1-2.66-.46v3.46a.94.94,0,0,0,.72,1l.38.1V19Zm5.46-4.88a1.78,1.78,0,0,0,1.59-1,7.51,7.51,0,0,0,.59-3.46,7.31,7.31,0,0,0-.56-3.39,1.76,1.76,0,0,0-1.62-1,3.55,3.55,0,0,0-1.64.48v8.06A4.24,4.24,0,0,0,29.58,14.07Z"/><path d="M38.48,15a3.26,3.26,0,0,1-2.14-.73,2.63,2.63,0,0,1-.9-2.13,2.53,2.53,0,0,1,1.07-2,7,7,0,0,1,3.15-1.26L41,8.64V7.31a3.61,3.61,0,0,0-.29-1.76.82.82,0,0,0-.77-.4.7.7,0,0,0-.54.21,1.61,1.61,0,0,0-.28.9l-.05.24a2.14,2.14,0,0,1-.49,1.41A1.6,1.6,0,0,1,36.33,8a1.43,1.43,0,0,1-.43-1.07,2.16,2.16,0,0,1,.66-1.6,3.9,3.9,0,0,1,1.63-.91,7.67,7.67,0,0,1,2.13-.29,4.32,4.32,0,0,1,3,.94,4,4,0,0,1,1.07,3.06v4.42c0,.5.21.6.54.6h.55l.48.42-.18.22a3.17,3.17,0,0,1-.91.82,2.83,2.83,0,0,1-1.42.3,2.44,2.44,0,0,1-1.58-.48,2.15,2.15,0,0,1-.6-.77,8.26,8.26,0,0,1-.94.78A3,3,0,0,1,38.48,15Zm2.46-5.29-.47.08a2.79,2.79,0,0,0-1.3.72,1.8,1.8,0,0,0-.47,1.33,1.46,1.46,0,0,0,.3,1,.92.92,0,0,0,.7.32,1.18,1.18,0,0,0,.61-.16A4.43,4.43,0,0,0,41,12.5V9.65Z"/><path d="M38.48,14.65A3,3,0,0,1,36.53,14a2.34,2.34,0,0,1-.79-1.9,2.23,2.23,0,0,1,1-1.73,6.75,6.75,0,0,1,3-1.19L40.44,9l.84-.15V7.31A3.94,3.94,0,0,0,41,5.4a1.11,1.11,0,0,0-1-.55,1,1,0,0,0-.76.31,1.83,1.83,0,0,0-.36,1.07l0,.22a2,2,0,0,1-.42,1.26,1.27,1.27,0,0,1-.94.4,1.22,1.22,0,0,1-.86-.32,1.12,1.12,0,0,1-.34-.86,1.85,1.85,0,0,1,.57-1.38,3.41,3.41,0,0,1,1.51-.84,7,7,0,0,1,2-.28,4,4,0,0,1,2.75.87,3.62,3.62,0,0,1,1,2.83v4.42q0,.9.84.9h.44l.18.16a3,3,0,0,1-.83.74,2.59,2.59,0,0,1-1.27.26A2.17,2.17,0,0,1,42,14.2a2,2,0,0,1-.67-1.09,8.75,8.75,0,0,1-1.23,1.09A2.73,2.73,0,0,1,38.48,14.65Zm1.22-1.22a1.61,1.61,0,0,0,.75-.19,6.36,6.36,0,0,0,.83-.59V9.29l-.4.08-.46.08a3.1,3.1,0,0,0-1.47.81,2.1,2.1,0,0,0-.55,1.53A1.79,1.79,0,0,0,38.78,13,1.22,1.22,0,0,0,39.7,13.43Z"/><path d="M38.48,14.65A3,3,0,0,1,36.53,14a2.34,2.34,0,0,1-.79-1.9,2.23,2.23,0,0,1,1-1.73,6.75,6.75,0,0,1,3-1.19L40.44,9l.84-.15V7.31A3.94,3.94,0,0,0,41,5.4a1.11,1.11,0,0,0-1-.55,1,1,0,0,0-.76.31,1.83,1.83,0,0,0-.36,1.07l0,.22a2,2,0,0,1-.42,1.26,1.27,1.27,0,0,1-.94.4,1.22,1.22,0,0,1-.86-.32,1.12,1.12,0,0,1-.34-.86,1.85,1.85,0,0,1,.57-1.38,3.41,3.41,0,0,1,1.51-.84,7,7,0,0,1,2-.28,4,4,0,0,1,2.75.87,3.62,3.62,0,0,1,1,2.83v4.42q0,.9.84.9h.44l.18.16a3,3,0,0,1-.83.74,2.59,2.59,0,0,1-1.27.26A2.17,2.17,0,0,1,42,14.2a2,2,0,0,1-.67-1.09,8.75,8.75,0,0,1-1.23,1.09A2.73,2.73,0,0,1,38.48,14.65Zm1.22-1.22a1.61,1.61,0,0,0,.75-.19,6.36,6.36,0,0,0,.83-.59V9.29l-.4.08-.46.08a3.1,3.1,0,0,0-1.47.81,2.1,2.1,0,0,0-.55,1.53A1.79,1.79,0,0,0,38.78,13,1.22,1.22,0,0,0,39.7,13.43Z"/><path d="M38.48,14.65A3,3,0,0,1,36.53,14a2.34,2.34,0,0,1-.79-1.9,2.23,2.23,0,0,1,1-1.73,6.75,6.75,0,0,1,3-1.19L40.44,9l.84-.15V7.31A3.94,3.94,0,0,0,41,5.4a1.11,1.11,0,0,0-1-.55,1,1,0,0,0-.76.31,1.83,1.83,0,0,0-.36,1.07l0,.22a2,2,0,0,1-.42,1.26,1.27,1.27,0,0,1-.94.4,1.22,1.22,0,0,1-.86-.32,1.12,1.12,0,0,1-.34-.86,1.85,1.85,0,0,1,.57-1.38,3.41,3.41,0,0,1,1.51-.84,7,7,0,0,1,2-.28,4,4,0,0,1,2.75.87,3.62,3.62,0,0,1,1,2.83v4.42q0,.9.84.9h.44l.18.16a3,3,0,0,1-.83.74,2.59,2.59,0,0,1-1.27.26A2.17,2.17,0,0,1,42,14.2a2,2,0,0,1-.67-1.09,8.75,8.75,0,0,1-1.23,1.09A2.73,2.73,0,0,1,38.48,14.65Zm1.22-1.22a1.61,1.61,0,0,0,.75-.19,6.36,6.36,0,0,0,.83-.59V9.29l-.4.08-.46.08a3.1,3.1,0,0,0-1.47.81,2.1,2.1,0,0,0-.55,1.53A1.79,1.79,0,0,0,38.78,13,1.22,1.22,0,0,0,39.7,13.43Z"/><path d="M45.66,14.65v-.73l.5-.14a.67.67,0,0,0,.37-.23.9.9,0,0,0,.11-.48V6.81a.74.74,0,0,0-.1-.46.63.63,0,0,0-.36-.17l-.52-.11V5.41l4-1.31.42.42-.06,3v5.6a.9.9,0,0,0,.1.48.66.66,0,0,0,.37.23l.41.12v.73Zm2.66-11A1.91,1.91,0,0,1,47,3.18a1.71,1.71,0,0,1-.57-1.31A1.71,1.71,0,0,1,47,.54,2,2,0,0,1,48.32.05a1.91,1.91,0,0,1,1.34.49,1.74,1.74,0,0,1,.56,1.33,1.74,1.74,0,0,1-.56,1.31A1.93,1.93,0,0,1,48.32,3.69Z"/><path d="M46,14.35v-.2l.28-.08a.92.92,0,0,0,.55-.36,1.21,1.21,0,0,0,.15-.64V6.81a1.08,1.08,0,0,0-.15-.63.83.83,0,0,0-.55-.29L46,5.83v-.2l3.66-1.18.2.2-.06,2.84v5.6a1.21,1.21,0,0,0,.15.64.93.93,0,0,0,.53.36l.2.06v.2Zm2.36-11A1.67,1.67,0,0,1,47.17,3a1.43,1.43,0,0,1-.47-1.09,1.41,1.41,0,0,1,.47-1.1A1.66,1.66,0,0,1,48.32.35a1.64,1.64,0,0,1,1.14.42,1.4,1.4,0,0,1,.46,1.1A1.42,1.42,0,0,1,49.46,3,1.65,1.65,0,0,1,48.32,3.39Z"/><path d="M51.22,14.65v-.73l.52-.14a.65.65,0,0,0,.37-.23.87.87,0,0,0,.11-.46V6.83a.93.93,0,0,0-.09-.48.71.71,0,0,0-.37-.17L51.22,6V5.39L55,4.1l.41.41.11,1.11.29-.33a4.32,4.32,0,0,1,1.08-.83,2.55,2.55,0,0,1,1.23-.33,1.83,1.83,0,0,1,1.38.51A1.78,1.78,0,0,1,60,5.91a1.66,1.66,0,0,1-.48,1.26,1.62,1.62,0,0,1-1.14.46,2.14,2.14,0,0,1-1.72-1c-.17-.22-.26-.23-.3-.24h0c-.08,0-.16.08-.21.14a1.54,1.54,0,0,0-.29.38,4.49,4.49,0,0,0-.22.49V13a.63.63,0,0,0,.48.71l.86.24v.73Z"/><path d="M51.52,14.35v-.2l.3-.08a.92.92,0,0,0,.55-.36,1.16,1.16,0,0,0,.15-.62V6.83a1.11,1.11,0,0,0-.15-.65.83.83,0,0,0-.55-.29l-.3-.08v-.2L55,4.45l.2.2.18,1.72v.16a4.1,4.1,0,0,1,.73-1,3.88,3.88,0,0,1,1-.77,2.27,2.27,0,0,1,1.09-.3,1.53,1.53,0,0,1,1.16.42,1.46,1.46,0,0,1,.4,1.06,1.39,1.39,0,0,1-.39,1,1.33,1.33,0,0,1-.93.37,1.85,1.85,0,0,1-1.48-.84l0,0a.65.65,0,0,0-.46-.31.53.53,0,0,0-.48.25,1.59,1.59,0,0,0-.33.43,3.87,3.87,0,0,0-.25.57V13a.93.93,0,0,0,.7,1l.64.18v.2Z"/><path d="M62.84,15a3.26,3.26,0,0,1-2.14-.73,2.63,2.63,0,0,1-.9-2.13,2.53,2.53,0,0,1,1.07-2A7,7,0,0,1,64,8.87l1.32-.23V7.31a3.61,3.61,0,0,0-.29-1.76.82.82,0,0,0-.77-.4.7.7,0,0,0-.54.21,1.61,1.61,0,0,0-.28.9l-.05.24a2.14,2.14,0,0,1-.49,1.41,1.54,1.54,0,0,1-1.16.5A1.5,1.5,0,0,1,60.69,8a1.43,1.43,0,0,1-.43-1.07,2.16,2.16,0,0,1,.66-1.6,3.9,3.9,0,0,1,1.63-.91,7.67,7.67,0,0,1,2.13-.29,4.32,4.32,0,0,1,2.95.94A4,4,0,0,1,68.7,8.13v4.42c0,.5.21.6.54.6h.55l.48.42-.18.22a3.17,3.17,0,0,1-.91.82,2.83,2.83,0,0,1-1.42.3,2.44,2.44,0,0,1-1.58-.48,2.29,2.29,0,0,1-.61-.77,7.4,7.4,0,0,1-.93.78A3,3,0,0,1,62.84,15ZM65.3,9.66a4.79,4.79,0,0,1-.48.08,2.89,2.89,0,0,0-1.3.72,1.84,1.84,0,0,0-.46,1.33,1.46,1.46,0,0,0,.3,1,.91.91,0,0,0,.7.32,1.18,1.18,0,0,0,.61-.16,5,5,0,0,0,.67-.47V9.65Z"/><path d="M62.84,14.65a3,3,0,0,1-2-.66,2.34,2.34,0,0,1-.79-1.9,2.23,2.23,0,0,1,1-1.73,6.75,6.75,0,0,1,3-1.19L64.8,9l.84-.15V7.31a3.94,3.94,0,0,0-.33-1.91,1.11,1.11,0,0,0-1-.55,1,1,0,0,0-.76.31,1.83,1.83,0,0,0-.36,1.07l0,.22a2,2,0,0,1-.42,1.26,1.27,1.27,0,0,1-.94.4,1.22,1.22,0,0,1-.86-.32,1.12,1.12,0,0,1-.34-.86,1.85,1.85,0,0,1,.57-1.38,3.41,3.41,0,0,1,1.51-.84,7,7,0,0,1,2-.28,4,4,0,0,1,2.75.87,3.62,3.62,0,0,1,1,2.83v4.42q0,.9.84.9h.44l.18.16a3,3,0,0,1-.83.74,2.59,2.59,0,0,1-1.27.26,2.17,2.17,0,0,1-1.39-.41,2,2,0,0,1-.67-1.09,8.75,8.75,0,0,1-1.23,1.09A2.73,2.73,0,0,1,62.84,14.65Zm1.22-1.22a1.61,1.61,0,0,0,.75-.19,6.36,6.36,0,0,0,.83-.59V9.29l-.4.08-.46.08a3.1,3.1,0,0,0-1.47.81,2.1,2.1,0,0,0-.55,1.53A1.79,1.79,0,0,0,63.14,13,1.22,1.22,0,0,0,64.06,13.43Z"/><path d="M74.52,15a4.53,4.53,0,0,1-2.27-.57,4,4,0,0,1-1.61-1.77,6.68,6.68,0,0,1-.58-3,6.51,6.51,0,0,1,.65-3.06,4.6,4.6,0,0,1,1.76-1.84,4.83,4.83,0,0,1,2.37-.6,7.07,7.07,0,0,1,1.4.14,4.45,4.45,0,0,1,.78.24V2.39a.9.9,0,0,0-.08-.46s-.08-.1-.36-.15L76,1.65V1l4-1,.45.37-.08,2.95v9.77a1,1,0,0,0,.1.5.53.53,0,0,0,.34.21l.4.13v.7l-4,.25-.14-.57a5.42,5.42,0,0,1-1,.4A5.2,5.2,0,0,1,74.52,15ZM75.7,5.29a1.66,1.66,0,0,0-1.39,1,6.7,6.7,0,0,0-.63,3.34,6.17,6.17,0,0,0,.59,3.18,1.63,1.63,0,0,0,1.41.84,2.27,2.27,0,0,0,1.24-.36V5.63A2.42,2.42,0,0,0,75.7,5.29Z"/><path d="M74.52,14.65a4.28,4.28,0,0,1-2.12-.53,3.73,3.73,0,0,1-1.49-1.64,6.38,6.38,0,0,1-.55-2.85A6.09,6.09,0,0,1,71,6.72,4.14,4.14,0,0,1,72.62,5a4.48,4.48,0,0,1,2.22-.57,5.86,5.86,0,0,1,1.34.14A3.85,3.85,0,0,1,77.32,5V2.39a1.12,1.12,0,0,0-.13-.62.78.78,0,0,0-.55-.28l-.38-.08v-.2L79.9.33l.22.18L80,3.31v9.78a1.39,1.39,0,0,0,.14.65.82.82,0,0,0,.52.35l.18.06v.2l-3.42.22-.18-.72a5,5,0,0,1-1.23.58A5.23,5.23,0,0,1,74.52,14.65Zm1.16-.74a2.62,2.62,0,0,0,1.54-.5V5.47A2.75,2.75,0,0,0,75.7,5,1.94,1.94,0,0,0,74.06,6.1a6.92,6.92,0,0,0-.68,3.49A6.4,6.4,0,0,0,74,12.94,1.94,1.94,0,0,0,75.68,13.91Z"/><path d="M81.5,14.65v-.73l.5-.14a.67.67,0,0,0,.37-.23.9.9,0,0,0,.11-.48V6.81a.74.74,0,0,0-.1-.46A.63.63,0,0,0,82,6.18l-.52-.11V5.41l4-1.31.42.42-.06,3v5.6a.9.9,0,0,0,.1.48.66.66,0,0,0,.37.23l.41.12v.73Zm2.66-11a1.91,1.91,0,0,1-1.35-.51,1.71,1.71,0,0,1-.57-1.31A1.71,1.71,0,0,1,82.81.54,2,2,0,0,1,84.16.05,1.91,1.91,0,0,1,85.5.54a1.74,1.74,0,0,1,.56,1.33,1.74,1.74,0,0,1-.56,1.31A1.93,1.93,0,0,1,84.16,3.69Z"/><path d="M81.8,14.35v-.2l.28-.08a.92.92,0,0,0,.55-.36,1.21,1.21,0,0,0,.15-.64V6.81a1.08,1.08,0,0,0-.15-.63.83.83,0,0,0-.55-.29l-.28-.06v-.2l3.66-1.18.2.2L85.6,7.49v5.6a1.21,1.21,0,0,0,.15.64.93.93,0,0,0,.53.36l.2.06v.2Zm2.36-11A1.67,1.67,0,0,1,83,3a1.43,1.43,0,0,1-.47-1.09A1.41,1.41,0,0,1,83,.77,1.66,1.66,0,0,1,84.16.35,1.64,1.64,0,0,1,85.3.77a1.4,1.4,0,0,1,.46,1.1A1.42,1.42,0,0,1,85.3,3,1.65,1.65,0,0,1,84.16,3.39Z"/><path d="M90.82,15A6.62,6.62,0,0,1,89,14.7a7.84,7.84,0,0,1-1.49-.59L87.32,14l0-2.86H88l.77,1.35a3.26,3.26,0,0,0,.89,1.09,1.93,1.93,0,0,0,1.17.34,2.27,2.27,0,0,0,1.37-.38,1,1,0,0,0,.47-.9,1.18,1.18,0,0,0-.33-.87,3.82,3.82,0,0,0-1.44-.69l-.84-.26a4.42,4.42,0,0,1-2-1.2,2.94,2.94,0,0,1-.78-2.06,3.18,3.18,0,0,1,1.14-2.47,4.68,4.68,0,0,1,3.18-1,6.37,6.37,0,0,1,1.54.18,5.67,5.67,0,0,1,1.4.53l.17.09-.15,2.64h-.66l-.78-1.4a2.78,2.78,0,0,0-.67-.83,1.6,1.6,0,0,0-.93-.21,2.06,2.06,0,0,0-1.12.33.92.92,0,0,0-.46.83,1,1,0,0,0,.39.84,4.75,4.75,0,0,0,1.43.69l.88.26a4.4,4.4,0,0,1,2.21,1.31,3.15,3.15,0,0,1,.69,2A3.09,3.09,0,0,1,94.23,14,5.48,5.48,0,0,1,90.82,15Z"/><path d="M90.82,14.65a6.36,6.36,0,0,1-1.76-.23,9.39,9.39,0,0,1-1.44-.57l0-2.38h.2l.68,1.2a3.63,3.63,0,0,0,1,1.19,2.2,2.2,0,0,0,1.35.39,2.61,2.61,0,0,0,1.55-.43A1.37,1.37,0,0,0,93,12.67a1.46,1.46,0,0,0-.42-1.08A3.74,3.74,0,0,0,91,10.83l-.84-.26a4.22,4.22,0,0,1-1.92-1.12,2.64,2.64,0,0,1-.7-1.86,2.89,2.89,0,0,1,1-2.24,4.32,4.32,0,0,1,3-.92A5.81,5.81,0,0,1,93,4.6a5.53,5.53,0,0,1,1.33.51l-.12,2.16H94L93.34,6a2.9,2.9,0,0,0-.75-.93,1.89,1.89,0,0,0-1.11-.27,2.3,2.3,0,0,0-1.28.38,1.2,1.2,0,0,0-.6,1.08,1.31,1.31,0,0,0,.51,1.08,5.42,5.42,0,0,0,1.51.74l.9.26a4,4,0,0,1,2.06,1.21,2.87,2.87,0,0,1,.62,1.85,2.8,2.8,0,0,1-1.15,2.34A5.26,5.26,0,0,1,90.82,14.65Z"/><path d="M101,15a5.44,5.44,0,0,1-2.67-.65,4.52,4.52,0,0,1-1.83-1.87,5.87,5.87,0,0,1-.66-2.86,5.53,5.53,0,0,1,.76-2.95,5.16,5.16,0,0,1,2-1.86,5.31,5.31,0,0,1,2.51-.63,4.7,4.7,0,0,1,2.37.57A3.9,3.9,0,0,1,105,6.25a4.64,4.64,0,0,1,.53,2.22c0,.15,0,.31,0,.47a2.14,2.14,0,0,1-.1.48l-.07.21H99.47a4.52,4.52,0,0,0,.69,2.62,2.39,2.39,0,0,0,2,.84,3.27,3.27,0,0,0,1.48-.29,3.57,3.57,0,0,0,1.07-.87l.2-.23.61.54-.12.21a4.84,4.84,0,0,1-1.76,1.83A5,5,0,0,1,101,15Zm1.28-6.32a7,7,0,0,0-.16-2.74,1.07,1.07,0,0,0-1.1-.76,1.21,1.21,0,0,0-.8.27,2.25,2.25,0,0,0-.54,1.09,10.57,10.57,0,0,0-.24,2.14Z"/><path d="M101.1,4.43a4.29,4.29,0,0,1,2.22.53,3.62,3.62,0,0,1,1.41,1.44,4.22,4.22,0,0,1,.49,2.07c0,.14,0,.29,0,.45a1.66,1.66,0,0,1-.08.41h-6a5.13,5.13,0,0,0,.77,3.11,2.67,2.67,0,0,0,2.23,1,3.56,3.56,0,0,0,1.62-.32,4.18,4.18,0,0,0,1.16-.94l.2.18A4.62,4.62,0,0,1,103.49,14a4.74,4.74,0,0,1-2.47.62A5.16,5.16,0,0,1,98.5,14a4.33,4.33,0,0,1-1.72-1.75,5.66,5.66,0,0,1-.62-2.72,5.12,5.12,0,0,1,.72-2.79A4.84,4.84,0,0,1,98.73,5,5,5,0,0,1,101.1,4.43Zm-.06.4a1.43,1.43,0,0,0-1,.35,2.35,2.35,0,0,0-.64,1.24,11.1,11.1,0,0,0-.25,2.51h3.42a7.8,7.8,0,0,0-.16-3.14A1.36,1.36,0,0,0,101,4.83Z"/></g></g></svg>