<svg xmlns="http://www.w3.org/2000/svg" viewBox="0 0 121.75 116.11"><defs><style>.cls-1{fill:#fff;}</style></defs><title>logo</title><g id="Layer_2" data-name="Layer 2"><g id="Layer_1-2" data-name="Layer 1"><path class="cls-1" d="M112.28,46.24a1.41,1.41,0,0,0-2-.73l-2.8.91C102.12,26.6,83.63,12,61.66,12,35.42,12,14.17,32.77,14.17,58.39a45.61,45.61,0,0,0,.74,8.07,7.14,7.14,0,0,0-2.11,3,2,2,0,0,0,.31,1.73,5.39,5.39,0,0,0,3.41,1.65,47.39,47.39,0,0,0,45.14,32c26.21,0,47.48-20.77,47.48-46.42a46.3,46.3,0,0,0-.8-8.46c1.07-.46,2.07-.91,3-1.35A2,2,0,0,0,112.28,46.24ZM63.54,55.57a1.08,1.08,0,0,1,2.16,0,1.08,1.08,0,0,1-2.16,0ZM61.5,52a1.25,1.25,0,0,1-1.23-1.16,1.28,1.28,0,0,1,1.23-1.2,1.26,1.26,0,0,1,1.2,1.2A1.24,1.24,0,0,1,61.5,52Zm21.33-.81a.76.76,0,0,1,.75-.73.77.77,0,0,1,.79.73.81.81,0,0,1-.79.74A.8.8,0,0,1,82.83,51.18Zm2.63.23a1.33,1.33,0,0,1,1.28-1.24,1.35,1.35,0,0,1,1.31,1.24,1.33,1.33,0,0,1-1.31,1.24A1.31,1.31,0,0,1,85.46,51.41ZM98.28,40.72A1.32,1.32,0,0,1,99.56,42,1.28,1.28,0,0,1,97,42,1.33,1.33,0,0,1,98.28,40.72Zm-4,5.05a.84.84,0,0,1,.79.77.8.8,0,0,1-1.6,0A.84.84,0,0,1,94.31,45.77Zm-1,2.52a.71.71,0,1,1,0,1.42.71.71,0,1,1,0-1.42ZM91.15,34.4a1,1,0,0,1,1,1,1,1,0,0,1-1,1,1.06,1.06,0,0,1-1-1A1,1,0,0,1,91.15,34.4ZM91,44a1.09,1.09,0,0,1-1,1,1,1,0,1,1,0-2A1.09,1.09,0,0,1,91,44Zm-2.19-3.43a.71.71,0,0,1,.67.66.7.7,0,0,1-.67.64.67.67,0,0,1-.68-.64A.68.68,0,0,1,88.81,40.59ZM87,26.5a1,1,0,1,1,0,2,1,1,0,1,1,0-2Zm-.18,9.8a1,1,0,1,1,0,2,1,1,0,1,1,0-2ZM86.46,44a1.08,1.08,0,0,1,1,1,1,1,0,0,1-2.09,0A1.08,1.08,0,0,1,86.46,44ZM84.11,31.73a1.51,1.51,0,0,1,1.46,1.37,1.53,1.53,0,0,1-1.46,1.42,1.51,1.51,0,0,1-1.44-1.42A1.49,1.49,0,0,1,84.11,31.73Zm-2,9.75a1.12,1.12,0,0,1,1,1,1,1,0,0,1-2.09,0A1.11,1.11,0,0,1,82.15,41.48ZM74.79,18.17a1.49,1.49,0,1,1,0,3,1.61,1.61,0,0,1-1.54-1.47A1.6,1.6,0,0,1,74.79,18.17ZM62.13,13.25c9,12.66,14.82,27.83,18.42,41.67-3.81,1.14-7.54,2.23-11,3.18l4.52-3.29L66.28,54,62.13,25.15,58.19,53.8l-7.78,1,7.28,5.06L57,61.27c-4.12,1-11.78,2.78-18.12,3.8.79-3.24,1.72-6.64,2.8-10.15h0l.26-.14,1.65-5.49-.1,0A137,137,0,0,1,62.13,13.25ZM44.92,20.43a1.11,1.11,0,1,1,0,2.21,1.11,1.11,0,1,1,0-2.21Zm-.26,13.69a1.39,1.39,0,1,1,0,2.77,1.39,1.39,0,1,1,0-2.77ZM37.12,34a1,1,0,1,1-1,1A1.08,1.08,0,0,1,37.12,34ZM25.06,50.8A1.21,1.21,0,1,1,23.81,52,1.28,1.28,0,0,1,25.06,50.8Zm-2.74-5.43a1.24,1.24,0,0,1,1.2,1.17,1.2,1.2,0,0,1-2.4,0A1.24,1.24,0,0,1,22.32,45.37Zm2.43,33.49a1,1,0,1,1,0-2,1,1,0,1,1,0,2Zm7.12,6.45a1.44,1.44,0,1,1,1.49-1.45A1.52,1.52,0,0,1,31.87,85.31Zm.6-9.7a1.44,1.44,0,0,1,1.39-1.35,1.41,1.41,0,0,1,1.38,1.35A1.43,1.43,0,0,1,33.86,77,1.46,1.46,0,0,1,32.47,75.61ZM62.21,86.22a1,1,0,0,1-1-.94,1,1,0,0,1,1-.94,1,1,0,0,1,1,.94A1,1,0,0,1,62.21,86.22Zm1.72,1.15a1.07,1.07,0,0,1,1-1,1.09,1.09,0,0,1,1,1,1.07,1.07,0,0,1-1,1A1.05,1.05,0,0,1,63.93,87.37Zm.49-10.06a1.1,1.1,0,0,1,1-1,1,1,0,1,1-1,1Zm2.09,20.82a1.69,1.69,0,1,1,1.73-1.7A1.78,1.78,0,0,1,66.51,98.13Zm1-16.1a.81.81,0,0,1-.81-.78.83.83,0,0,1,.81-.79.85.85,0,0,1,.83.79A.83.83,0,0,1,67.48,82Zm.86-3.42a.75.75,0,1,1,.73.71A.76.76,0,0,1,68.34,78.61Zm1.83,7.66a1.51,1.51,0,0,1-1.49-1.42,1.49,1.49,0,0,1,3,0A1.52,1.52,0,0,1,70.17,86.27Zm15.53-20a1.58,1.58,0,0,1-1.51-1.52,1.56,1.56,0,0,1,1.51-1.48,1.59,1.59,0,0,1,1.54,1.48A1.61,1.61,0,0,1,85.7,66.29ZM91.08,82.8a1.26,1.26,0,1,1,1.3-1.25A1.32,1.32,0,0,1,91.08,82.8Zm4.46-21.11a.81.81,0,1,1,0-1.62.81.81,0,1,1,0,1.62Zm2.38,10.14a1.25,1.25,0,1,1,0-2.49,1.25,1.25,0,1,1,0,2.49Zm3.13,4.77a1,1,0,0,1-.92-.89,1,1,0,0,1,.92-.89.92.92,0,0,1,.89.89A.94.94,0,0,1,101.05,76.6ZM86.61,97.4s-14.33-24.08-19-24.08c-7.8,0-33.07,22.78-33.07,22.78a154.76,154.76,0,0,1,3.2-24.95c9.64-1.79,19.84-4.38,26.14-6.08l2.1-.58c.12,0,1.89,3.22,1.89,3.22s0-2.69,0-3.77c4-1.17,8.78-2.63,13.71-4.23A195,195,0,0,1,86.61,97.4Zm24.13-50.11c-11,5.24-34.94,13.09-47.26,16.41C41,69.76,17,74.17,14.25,70.34a.61.61,0,0,1-.07-.56c.9-3.66,16.19-12.37,27.12-17.8l-.54,1.81c-3.76,2-14.5,8-13.59,11.45.9,3.6,11.32,1.86,30.24-2.62L61,61.78c12.94-3,38.73-11.35,49.74-14.93a.63.63,0,0,1,.2,0A.67.67,0,0,1,110.74,47.29Z"/><g id="Trekdinner_Oldenburg" data-name="Trekdinner Oldenburg"><path class="cls-1" d="M118,64.44a11.36,11.36,0,0,1,2.22.45,1.38,1.38,0,0,1,.86.59,3.18,3.18,0,0,1,.1,1.7,20.72,20.72,0,0,1-.49,3.17,20.27,20.27,0,0,1-1.36,4.45,1,1,0,0,1-1.23.61l-.67-.23c-2.07-.64-4.76-1.53-6.82-2.14-.1-.05-.18-.07-.31-.12l-.29-.08c-.49-.13-1.93-.51-2.14-1.06a2.28,2.28,0,0,1,.13-.94c.13-.69.32-1.35.47-2a3.71,3.71,0,0,0,.13-.53,2.49,2.49,0,0,0,.16-.61l.16-.69a6.8,6.8,0,0,1,.15-.76c.13-.69.24-1.42.37-2.11,0-.33.08-.61.1-.94.63.08,1.23.13,1.83.21,0,.33-.08.66-.13,1-.11.73-.24,1.52-.39,2.26a4.94,4.94,0,0,1-.16.71,6.83,6.83,0,0,1-.13.68c0,.15-.08.33-.1.48a1.84,1.84,0,0,1-.13.44,7.58,7.58,0,0,0-.34,1.57c0,.25.36.33.57.41.78.25,1.49.51,2.19.71s1.33.35,2,.53c.26,0,.55.15.79.2l1,.28c.4.11,1.07.31,1.41,0a2.33,2.33,0,0,0,.42-.92c.21-.58.34-1.16.5-1.72a16.47,16.47,0,0,0,.31-1.93,2.59,2.59,0,0,0,0-.92c-.21-.48-1.1-.58-1.57-.66s-1.22-.22-1.61.08a1.12,1.12,0,0,0-.27.53,13.32,13.32,0,0,0-.33,1.42l-.19.77c-.13.66-.31,1.32-.47,1.93-.6-.13-1.17-.26-1.77-.44l.08-.27c.1-.41.23-.82.31-1.25,0-.13,0-.23.08-.33a1.43,1.43,0,0,1,.13-.48c0-.13,0-.28.08-.41.13-.76.31-1.55.49-2.28a2.85,2.85,0,0,1,.55-1.15,1.68,1.68,0,0,1,1-.27,11.14,11.14,0,0,1,2.3.1Z"/><path class="cls-1" d="M119.84,55c-1.85.1-3.7.17-5.53.25,0-.63-.11-1.29-.16-2,2.46-.17,4.91-.4,7.36-.63,0,.3.08.58.11.89,0,.63.08,1.29.08,1.93s0,1.22,0,1.85v1a13.29,13.29,0,0,1-.21,2.26,4.47,4.47,0,0,1-.42,1.67,2.73,2.73,0,0,1-2.22,1,18.84,18.84,0,0,1-.05-2.67H119a.42.42,0,0,1,.19,0,.52.52,0,0,0,.49-.46,6.71,6.71,0,0,0,.19-1.9V56.64c0-.35,0-.74,0-1.12a2.8,2.8,0,0,1,0-.5Z"/><path class="cls-1" d="M121.36,51.54c-1.83.2-3.68.35-5.54.56h-.18a.65.65,0,0,1-.18,0c-.39,0-1.1.13-1.36-.25a4.21,4.21,0,0,1-.21-1,10.74,10.74,0,0,1-.18-1.19c0-.28-.08-.53-.13-.79s-.13-.58-.18-.86a5.4,5.4,0,0,0-.14-.74l-.15-.66c-.16-.63-.24-.79-.39-1.42a2.74,2.74,0,0,1-.13-1.07c.1-.5,1-.71,1.43-.83l5.3-1.58c.24.71.44,1.42.63,2.19-1.49.35-3,.73-4.49,1.11h0c-.26,0-.68.15-.73.43,0,.59.15.71.28,1.27s.24,1,.32,1.48l.08.45a4.44,4.44,0,0,0,.18,1.07.44.44,0,0,0,.52.23l.39-.08c1.52-.18,3.08-.38,4.6-.61.1.76.2,1.5.26,2.24Z"/><path class="cls-1" d="M111.36,25.31c.23.3.31.43.5.68s.33.59.49.92a3.64,3.64,0,0,1,.37,1.55,2.25,2.25,0,0,1,0,.58c-.13.48,0-.51-.08.23a4.13,4.13,0,0,1-2.43,2.59c-.81.4-1.64.81-2.43,1.24l-1-1.67c.83-.44,1.61-.89,2.4-1.35a2.61,2.61,0,0,0,1.3-1.47,1.71,1.71,0,0,0,0-1.14,2.77,2.77,0,0,0-.34-.69,6.52,6.52,0,0,1-.68-1.24c-.23-.31-.44-.61-.67-.89a4.62,4.62,0,0,1-.34-.41c-1.47,1.09-2.9,2.18-4.39,3.28-.42-.54-.84-1-1.25-1.55,1.88-1.5,3.78-3,5.66-4.55.21.21.39.43.58.66.41.48.83,1,1.22,1.5s.21.48.58,1c.15.25.36.5.52.76Z"/><path class="cls-1" d="M98.75,22c-.21-.18-.42-.39-.6-.54a7.69,7.69,0,0,1-.57-.53c-.53-.41-1-.81-1.47-1.22a2.93,2.93,0,0,1-.7-.79c-.21-.48.39-1.14.68-1.5.78-.91,1.54-1.85,2.3-2.76.36-.46.91-1,1.59-.82a7.91,7.91,0,0,1,1.46.94c.84.66,1.67,1.37,2.45,2.11a19.91,19.91,0,0,1,2,1.91,6,6,0,0,1,1,1.37c.21.63-.34,1.14-.78,1.52-.71.58-1.2,1-1.91,1.6-.13-.15-.31-.33-.44-.46a40.23,40.23,0,0,0-3-2.89,2.45,2.45,0,0,0-.29-.23c-.15-.15-.34-.3-.49-.46s-.42-.35-.6-.51-.16-.15-.24-.2c.42-.46.5-.43.91-.86a49,49,0,0,1,3.71,3.3s0,0,0,0a2.35,2.35,0,0,0,.32-.28,1,1,0,0,0,.1-.86,10.63,10.63,0,0,0-1.72-1.62,16.21,16.21,0,0,0-1.41-1.22,2.57,2.57,0,0,0-.89-.51c-.55-.08-1,.58-1.36.91s-.94.89-.88,1.4a1.55,1.55,0,0,0,.41.53,12.61,12.61,0,0,0,.92.87,1.31,1.31,0,0,1,.31.28,1.33,1.33,0,0,1,.34.3A43.9,43.9,0,0,1,103.32,24c-.47.38-.91.79-1.41,1.17a10.13,10.13,0,0,0-.68-.79c-.47-.51-.7-.61-1.2-1.14-.23-.23-.44-.43-.65-.66a7,7,0,0,1-.63-.58Z"/><path class="cls-1" d="M94.78,16.37c-.28.35-.78,1.07-1.35,1a4.78,4.78,0,0,1-1-.53c-.55-.33-1.12-.72-1.7-1.07l-.57-.38L89.51,15a3.48,3.48,0,0,0-.5-.3,2.16,2.16,0,0,0-.47-.28,15,15,0,0,1-1.3-.84,2.31,2.31,0,0,1-.89-.84,1.79,1.79,0,0,1,.13-1,14.84,14.84,0,0,1,.92-2,8.22,8.22,0,0,1,1.2-1.86,1.48,1.48,0,0,1,.91-.61,4.58,4.58,0,0,1,1.72.49A13.4,13.4,0,0,1,93.5,9a3.51,3.51,0,0,1,.34.18l.66.43a5,5,0,0,1,.67.43,1,1,0,0,1,.29.2c-.34.49-.7,1-1,1.48l-1.91-1.22a6.58,6.58,0,0,0-1.07-.59,2.23,2.23,0,0,0-1-.35c-.55,0-.92.73-1.18,1.14h0v0h0c-.19.38-.68,1-.5,1.49a1.29,1.29,0,0,0,.52.49,3.7,3.7,0,0,0,.5.35c.1.08.21.13.34.23s.23.13.36.18.24.18.39.25a1.85,1.85,0,0,1,.34.23c.37.2.73.46,1.13.69a1.45,1.45,0,0,0,.62.25c.39,0,.73-.53.89-.79a.64.64,0,0,0,.16-.2c0-.05.1-.13.15-.18.21-.28.39-.56.63-.86s.47-.64.73-.94c.42-.58.86-1.17,1.31-1.75.18-.26.39-.54.57-.79.65.43,1.28.91,1.93,1.37-1.51,1.88-3,3.76-4.57,5.64Z"/><path class="cls-1" d="M86.43,3.39c.73.31,1.46.61,2.19.94C87.27,7,86,9.69,84.63,12.38c-.6-.3-1.23-.56-1.83-.81,1.2-2.74,2.43-5.46,3.63-8.18Z"/><path class="cls-1" d="M84.42,3.06a2.48,2.48,0,0,0-1-.73,18.18,18.18,0,0,0-2.79-1.1C79.83,1,79.07.78,78.29.55A15.55,15.55,0,0,0,75.47,0a2.28,2.28,0,0,0-1.28.17,2.6,2.6,0,0,0-.66,1.07A20.25,20.25,0,0,0,72.8,3.9c-.18.81-.36,1.68-.47,2.49a3.16,3.16,0,0,0,0,1.37,1.29,1.29,0,0,0,.68.53,8.33,8.33,0,0,0,1.78.54,2,2,0,0,0,.42.12c.15.05.33.08.49.13.68.2,1.33.38,2,.59.2.05.36.12.57.17a3.89,3.89,0,0,0,.44.16,17.9,17.9,0,0,0,1.8.58,2,2,0,0,0,.87,0,1.92,1.92,0,0,0,.54-.66,15.83,15.83,0,0,0,.89-1.8A2.79,2.79,0,0,1,83,7.61c.1-.2.18-.41.26-.61s.16-.36.26-.56.13-.28.21-.46A10.33,10.33,0,0,0,84.45,4,1.41,1.41,0,0,0,84.42,3.06Zm-2.9,2.39c0,.15-.08.25-.13.38a1,1,0,0,0-.15.41,2,2,0,0,0-.16.38L80.92,7a4.06,4.06,0,0,1-.65,1.4c-.24.23-.71.05-1,0l-.21-.07-.23-.08a2.24,2.24,0,0,0-.26-.1.94.94,0,0,1-.31-.1l-2.07-.61a1.06,1.06,0,0,1-.23,0,1.6,1.6,0,0,0-.21,0c-.37-.1-1.1-.23-1.25-.64a2,2,0,0,1,0-.78c.08-.54.24-1,.34-1.53a13.66,13.66,0,0,1,.45-1.42,1.53,1.53,0,0,1,.44-.76c.5-.36,1.46,0,2,.1.76.23,1.54.43,2.27.69a7.19,7.19,0,0,1,1.39.53c.15.1.39.2.47.38C82.1,4.33,81.73,5,81.52,5.45Z"/><path class="cls-1" d="M53,2.68c.29,1.75.58,3.53.87,5.26-.66.1-1.34.2-2,.35L50.41,1.34l.88-.16C51.92,1,53.3.88,54,.8A33.26,33.26,0,0,1,59.23.52,5.84,5.84,0,0,1,61,.73c.79.4.71,1.62.71,2.33h-1.1c-.28,0-.52,0-.78,0a.83.83,0,0,0-.34.05v-.2s0-.11,0-.18a.47.47,0,0,0-.52-.43c-1,0-1.77,0-2.79,0-.84,0-1.8.15-2.64.26L53,2.68Z"/><path class="cls-1" d="M45.37,10.07l-.73.26L42.76,11a3.59,3.59,0,0,1-1,.23c-.55-.08-.86-.86-1-1.27-.47-1.12-.94-2.21-1.44-3.28-.21-.53-.44-1.27,0-1.7a6.52,6.52,0,0,1,1.59-.78A27.39,27.39,0,0,1,44,3.06a23,23,0,0,1,2.58-.73,5.28,5.28,0,0,1,1.77-.21c.68.08.89.79,1,1.37.21.84.29,1.43.47,2.26a3.34,3.34,0,0,1-.62.16c-1.57.35-2.46.66-4,1.11l-.34.11a6.06,6.06,0,0,1-.68.2c-.2.08-.47.15-.7.25l-.31.1c-.19-.58-.27-.55-.47-1.09a48.64,48.64,0,0,1,4.75-1.5s0,0,0,0a1.32,1.32,0,0,1-.1-.38c-.08-.23-.34-.58-.55-.56a18.27,18.27,0,0,0-2.25.66c-.6.21-1.2.41-1.8.64a2.19,2.19,0,0,0-.89.51c-.33.4,0,1.17.16,1.57s.39,1.22.84,1.4a1.66,1.66,0,0,0,.7-.1,6.53,6.53,0,0,0,1.23-.36c.13-.05.29-.08.39-.13a2.35,2.35,0,0,0,.47-.15C47.3,7.66,48.4,7.3,50.09,7c.16.58.26,1.14.39,1.72a9.73,9.73,0,0,0-1,.23c-.73.16-1.46.31-2.17.51s-1.72.59-1.93.66Z"/><path class="cls-1" d="M32.21,8a10,10,0,0,1,1.67-.74,5.73,5.73,0,0,1,2.85-.17,4,4,0,0,1,2.43,2.56c.34.81.7,1.65,1,2.44-.63.28-1.25.56-1.83.84-.41-.82-.81-1.6-1.2-2.39a2.63,2.63,0,0,0-1.36-1.42,3.08,3.08,0,0,0-1.54,0,6.61,6.61,0,0,0-.7.26,2.75,2.75,0,0,0-.57.28l-1.7.93a5.15,5.15,0,0,0-.45.28c1,1.48,2,3,2.9,4.5-.55.33-1.12.68-1.67,1-1.38-2-2.77-3.91-4.15-5.84a8,8,0,0,0,.68-.46l1.77-1.06c.27-.16-4.54,2.48,1.83-1Z"/><path class="cls-1" d="M14.7,19.75c.54-.59,1.07-1.17,1.61-1.73.21.18.45.41.68.58-.54.56-1.09,1.15-1.59,1.73-.26-.2-.47-.41-.7-.58Z"/><path class="cls-1" d="M19.32,25.48c.36.28,1.07.79,1,1.35a3.14,3.14,0,0,1-.57.89c-.39.53-.81,1.07-1.2,1.57-.16.21-.29.36-.42.56l-.47.64c-1.44,1.85-1,1.55-1.2,1.75a3,3,0,0,1-.91.84,2,2,0,0,1-1-.13,12.76,12.76,0,0,1-2-1,9.53,9.53,0,0,1-1.93-1.25,1.62,1.62,0,0,1-.57-.86,3.58,3.58,0,0,1,.6-1.65,31.63,31.63,0,0,1,2.19-3.35A2,2,0,0,1,13,24.6c.47.35,1,.71,1.47,1.06a29.08,29.08,0,0,0-1.68,2.44,2.33,2.33,0,0,0-.39.91c0,.54.73.92,1.15,1.15v0h0c.39.21,1.07.71,1.54.56a2.38,2.38,0,0,0,.52-.48c.52-.51.5-.74.5-.76a1.07,1.07,0,0,1,.28-.36,1.55,1.55,0,0,1,.21-.33c.26-.33.55-.68.79-1a3,3,0,0,0,.33-.61c0-.38-.54-.71-.8-.91a1,1,0,0,1-.19-.13.74.74,0,0,0-.21-.15c-.28-.21-.54-.43-.83-.64l-1-.73L13,23.28c-.26-.18-.5-.39-.79-.59.5-.61,1-1.22,1.52-1.8q2.82,2.28,5.64,4.59Z"/><path class="cls-1" d="M10,48.21a5.26,5.26,0,0,0-.16.81c-.05.23-.1.49-.13.71-.13.66-.23,1.3-.34,1.91a4,4,0,0,1-.31,1c-.32.46-1.23.3-1.67.25-1.23-.1-2.46-.25-3.66-.35-.6-.05-1.38-.21-1.56-.87A7.49,7.49,0,0,1,2.22,50c.13-1,.34-2.1.52-3.15s.24-1.7.5-2.71a5,5,0,0,1,.65-1.55,1.74,1.74,0,0,1,1.77-.26c.89.23,1.54.46,2.41.74-.08.2-.13.43-.24.69-.42,1.39-.47,2.54-.81,4a1.72,1.72,0,0,1,0,.36,6.48,6.48,0,0,1-.16.63c0,.23-.08.46-.1.69s0,.25-.08.41c-.6-.11-.68-.08-1.28-.21a45.14,45.14,0,0,1,.86-4.87s0,0,0,0a2.13,2.13,0,0,1-.42-.1c-.21,0-.7,0-.75.23-.21.89-.19,1.5-.4,2.36a15.22,15.22,0,0,0-.31,1.93,2.42,2.42,0,0,0,0,.89c.24.51,1.07.58,1.54.63s1.28.28,1.67,0a1.46,1.46,0,0,0,.32-.78A8.54,8.54,0,0,0,8,48.72c0-.15.05-.28.08-.43s.05-.26.08-.43c.36-1.63.49-3,1-4.55.6.18,1.17.36,1.75.51-.11.33-.19.66-.32,1-.31,1.09-.39,2.31-.62,3.4Z"/><path class="cls-1" d="M3.42,61c1.85-.1,3.68-.23,5.53-.33,0,.66.08,1.29.13,1.95-2.45.21-4.88.46-7.33.71,0-.3-.05-.61-.08-.88,0-.64-.1-1.3-.16-1.91s0-1.24-.05-1.88v-1a16.92,16.92,0,0,1,.11-2A5.15,5.15,0,0,1,2,53.92c.47-.71,1.75-.5,2.48-.45a.27.27,0,0,0,0,.15,2.76,2.76,0,0,0,0,.38,1.06,1.06,0,0,0,0,.28.47.47,0,0,0,0,.25c0,.26,0,.49-.05.74,0,.1,0,.23,0,.33H3.94a.47.47,0,0,0-.52.46c-.08,1-.1,1.37-.1,1.88v.35c0,.33.05.69.05,1s0,.73,0,1.11a3.08,3.08,0,0,1,0,.54Z"/><path class="cls-1" d="M2.92,71c.34,1.45.73,2.87,1.2,4.32l-1.77.53A55.3,55.3,0,0,1,0,64.77c.63-.08,1.25-.13,1.83-.18.18,1.47.36,2.74.62,4.21,2.43-.43,4.86-.86,7.29-1.32.1.66.26,1.3.39,1.93-2.4.56-4.8,1.07-7.21,1.6Z"/><path class="cls-1" d="M9.87,32.29a1.63,1.63,0,0,1,.78.71,1.68,1.68,0,0,1,.21.76,1.58,1.58,0,0,1-.08.61,1.34,1.34,0,0,1-.13.23.68.68,0,0,0,.18-.23,1.35,1.35,0,0,1,.45-.4,2.07,2.07,0,0,1,.73-.26A1.82,1.82,0,0,1,13.1,34l.29.15a4.11,4.11,0,0,0,.52.25,4.86,4.86,0,0,0,.53.31c.07,0,.18.07.26.12l-.94,1.76a1.58,1.58,0,0,0-.26-.13,6.19,6.19,0,0,1-.58-.28,4.39,4.39,0,0,0-.47-.2,1.7,1.7,0,0,1-.31-.18.86.86,0,0,0-.92.13,5.11,5.11,0,0,0-.65.86.63.63,0,0,1-.1.25.7.7,0,0,1-.11.23c-.36.92-.41,1.14-.88,2.44l2.58.86c-.21.64-.44,1.25-.63,1.88-2.95-.91-5.87-1.78-8.82-2.66.26-.74.52-1.45.78-2.19,1.47.51,2.9,1,4.34,1.5.52-1.32.44-1.14,1-2.54a2,2,0,0,1,.11-.25c0-.08.08-.18.1-.26A3.42,3.42,0,0,0,9.21,35a.69.69,0,0,0-.41-.74c-.11,0-.19-.13-.32-.18a4.18,4.18,0,0,1-.39-.18l-.65-.3-.29-.15c.34-.66.71-1.35,1.1-2a3.18,3.18,0,0,0,.44.26c.39.2.79.4,1.18.63Z"/><path class="cls-1" d="M112.61,34.27c-.39.18-1.2.48-1.33,1a1.57,1.57,0,0,0,.13.68c.18.38.34.76.52,1.14.06.16.13.26.16.36.13.43.21.56.34,1,0,.15.13.38.16.53a3.24,3.24,0,0,0,.13.33c.13.28.28.79.6.92a2.78,2.78,0,0,0,1.12-.26l.44-.17.19-.05c.05,0,.1,0,.13-.06.36-.1,1.07-.3,1.2-.68a2.71,2.71,0,0,0-.16-.76,9.52,9.52,0,0,0-.42-1.5c0-.13-.1-.23-.15-.38-.29-.66-.6-1.32-.92-2,.58-.28,1.1-.51,1.67-.76.06.1.11.22.16.3a5.66,5.66,0,0,1,.34.71,10.57,10.57,0,0,0,.47,1,29.77,29.77,0,0,1,.89,2.92,4.71,4.71,0,0,1,.31,1.67c-.18.82-1.44,1.12-2.14,1.32-.16,0-.29.08-.42.11s-.29.07-.47.12l-.49.18a2.66,2.66,0,0,0-.45.13,7.8,7.8,0,0,1-1.64.38,1.29,1.29,0,0,1-.76-.08,2.38,2.38,0,0,1-.57-.94c-.29-.63-.5-1.24-.76-1.88-.08-.23-.16-.48-.24-.68-.31-.87-.39-1.07-.44-1.2a5.89,5.89,0,0,0-.29-.63c-.28-.56-.54-1.14-.81-1.73a2.76,2.76,0,0,1-.33-1c0-.51.8-.91,1.22-1.12,2.19-1.11,4.36-2.26,6.53-3.37.36.66.73,1.34,1.09,2-.31.13-.62.28-.91.43-.65.31-1.33.64-2,.94-.36.18-.73.36-1.1.51s-.65.3-1,.48Z"/><path class="cls-1" d="M26.55,12.92a4,4,0,0,1,2.87,2c.52.73,1,1.47,1.51,2.18-.52.38-1.09.76-1.62,1.14-.54-.71-1.09-1.42-1.64-2.1A2.63,2.63,0,0,0,26,15.07a2.87,2.87,0,0,0-1.52.26,1.68,1.68,0,0,0-.62.35c-.84.71-1.52,1.4-2.3,2.11,1.25,1.3,2.53,2.57,3.81,3.84-.52.45-1,.91-1.49,1.37l-5.27-4.93.65-.63c.44-.44.94-.89,1.44-1.33,2.08-1.82,1.61-1.49,2.16-2a5.32,5.32,0,0,1,3.66-1.21Z"/><path class="cls-1" d="M16.11,20.89c.49-.56,1-1.12,1.54-1.68l5.4,4.85c-.5.49-.94,1-1.38,1.48-1.86-1.55-3.74-3.1-5.56-4.65Z"/></g><g id="Germany"><path class="cls-1" d="M33.6,100.7c-.27-.13-.55-.26-.81-.41l-.58-.28c-.15-.1-.34-.18-.49-.28-.68-.35-1.36-.73-2-1.11l-1-.61h0s0,0,0,0a5.76,5.76,0,0,0-1-.51.71.71,0,0,0-.52,0,.74.74,0,0,0-.31.28,1.64,1.64,0,0,0-.29.35,13.29,13.29,0,0,0-.91,1.35v0h0c-.29.49-.57.94-.81,1.45a2.14,2.14,0,0,0-.21.43,1.22,1.22,0,0,0-.08.43,1,1,0,0,0,.29.51,4.54,4.54,0,0,0,1,.74l.73.46c.73.43,1.46.86,2.22,1.26a6.07,6.07,0,0,0,.57.31c.29-.58.55-1.17.84-1.73l-.55-.3c-.71-.38-1.44-.81-2.14-1.22-.24-.15-.47-.31-.71-.43.34-.56.66-1.12,1-1.68.34.23.68.43,1,.64.68.4,1.38.78,2.06,1.16.18.11.36.18.55.28l.6.31c.26.15.55.28.81.4-.13.28-.24.56-.37.84s-.23.56-.36.84-.16.36-.27.56c-.28.63-.57,1.29-.86,1.93-.15.38-.31.74-.49,1.12-.29-.16-.6-.31-.89-.46s-.44-.23-.68-.33a6.07,6.07,0,0,1-.57-.31c-.6-.33-1.18-.63-1.75-1-.19-.13-.37-.23-.55-.36-.39-.22-.76-.45-1.15-.68-.1-.08-.21-.13-.31-.2l-.32-.21a10,10,0,0,1-1.22-.89,2.63,2.63,0,0,1-.34-.33l-.11-.1c-.05-.07-.1-.1-.15-.18a.21.21,0,0,1-.08-.1,1.33,1.33,0,0,1-.26-.56V102a1.3,1.3,0,0,1,.05-.36l.16-.45a4.18,4.18,0,0,1,.28-.56c.08-.16.16-.31.24-.44A22,22,0,0,1,24,98.31a18.6,18.6,0,0,1,1.33-1.8c.1-.13.23-.26.34-.38a3.05,3.05,0,0,1,.44-.44,1.35,1.35,0,0,1,.37-.3,1.39,1.39,0,0,1,.31-.18h.1a1.32,1.32,0,0,1,.29,0,.2.2,0,0,0,.1,0,.49.49,0,0,0,.19.05s.08,0,.1,0a3.14,3.14,0,0,1,.84.31,12.48,12.48,0,0,1,1.22.71h0a0,0,0,0,0,0,0c.31.17.62.38.94.55.62.38,1.28.74,1.9,1.1l.5.25c.21.1.36.2.57.3a6.61,6.61,0,0,0,.76.36c-.26.61-.52,1.19-.78,1.78Z"/><path class="cls-1" d="M36.73,111c-.29-.1-.55-.2-.84-.33a7.61,7.61,0,0,1-.75-.28,18.19,18.19,0,0,1-2.14-1c-.14-.07-.24-.15-.34-.2a1.26,1.26,0,0,1-.32-.28c-.05,0-.05,0-.08-.08a1.07,1.07,0,0,1,0-.5,4,4,0,0,1,.39-1.2c.31-.73.65-1.47,1-2.21.07-.2.18-.38.26-.56l.31-.76.13-.25.13-.23a1.72,1.72,0,0,1,.44-.58.62.62,0,0,1,.53-.23,4,4,0,0,1,.81.2c.31.13.65.25,1,.38s.91.33,1.38.51c.31.13.31.13.65.25l.66.26c.47.15.91.33,1.38.51s.68.25,1,.38a4,4,0,0,1,.76.4.32.32,0,0,1,.13.15.92.92,0,0,1,.13.36,2.3,2.3,0,0,1,0,.74,1.51,1.51,0,0,1-.05.28,2.33,2.33,0,0,0,0,.28l-.55,2.2c-.05.21-.08.41-.13.61-.21-.07-.42-.12-.6-.17s-.58-.18-.86-.26-.42-.12-.63-.2c-.68-.2-1.36-.43-2-.69-.34-.12-.39-.15-.73-.25a2.15,2.15,0,0,0-.32-.13c-.2-.07-.41-.18-.62-.25s-.42-.18-.65-.26l-.29-.12c.23-.61.44-1.22.68-1.81l1,.39c.24.1.47.17.73.28.71.27,1.44.53,2.17.78l.76.23v-.05c0-.13.08-.28.13-.41v-.22a.45.45,0,0,0-.26-.28l-.37-.16c-.18-.07-.39-.15-.57-.2l-1.41-.53c-.52-.21-1-.38-1.57-.56-.16,0-.31-.08-.44-.13a1.36,1.36,0,0,0-.45,0,.78.78,0,0,0-.41.35,4.33,4.33,0,0,0-.55,1.07,8.86,8.86,0,0,0-.37,1.17.74.74,0,0,0,0,.53.61.61,0,0,0,.19.2.9.9,0,0,0,.28.18,7.16,7.16,0,0,0,1.23.56l.39.15.44.15,1,.38c.26.11.52.18.79.28.75.26,1.54.51,2.32.74a7.44,7.44,0,0,0,.78.2c-.15.64-.31,1.27-.47,1.88-.34-.07-.68-.18-1-.28-.75-.23-1.51-.48-2.24-.73l-.94-.31c-.29-.1-.57-.23-.86-.33Z"/><path class="cls-1" d="M46.91,108.47c0,.3-.13.61-.18.89-.16.71-.29,1.42-.45,2.1,0,.21-.08.41-.1.61s-.13.59-.18.89-.19.81-.27,1.22l-2-.53.39-1.6c.08-.41.18-.79.29-1.2l.47-2c.07-.28.13-.53.21-.81s.1-.51.18-.79.18-.78.29-1.19a6,6,0,0,0,.7.18,15.73,15.73,0,0,0,1.54.38c.5.13,1,.23,1.49.33l.76.15h0l.36.08a1.47,1.47,0,0,1,.34,0c.47.07.94.18,1.41.28a5.93,5.93,0,0,1,1,.23,3.18,3.18,0,0,1,.81.3l.1.1a1.65,1.65,0,0,1,.26.71,6.7,6.7,0,0,1,.05.79c0,.33,0,.69,0,1h-.16c-.1,0-.23,0-.34-.05H53.7a.66.66,0,0,0-.24,0c-.23,0-.44,0-.68-.1s-.21,0-.29,0v-.2a.32.32,0,0,0,0-.18v-.15s0-.08,0-.13a.54.54,0,0,0-.36-.28,2.35,2.35,0,0,0-.42-.1c-.18-.05-.39-.07-.6-.12-.44-.08-.91-.16-1.38-.26a2.66,2.66,0,0,1-.52-.1c-.29,0-.6-.1-.89-.18s-.65-.12-1-.2c-.15,0-.28-.08-.44-.1Z"/><path class="cls-1" d="M59.36,108.24a2.19,2.19,0,0,1,1.07.28,1.84,1.84,0,0,1,.55.56,1.39,1.39,0,0,1,.23.56c0,.07,0,.17,0,.25,0-.08,0-.18,0-.25a1.67,1.67,0,0,1,.18-.56,1.88,1.88,0,0,1,.55-.54,1.83,1.83,0,0,1,1.07-.28l1.59-.07c.29,0,.55,0,.83,0h.37c0,.4.08.81.1,1.22s.06.55.08.81a8,8,0,0,1,.11.84c0,.66.13,1.34.21,2,0,.4.07.81.1,1.22s.1,1.09.16,1.65c-.68,0-1.39.1-2.09.12,0-.3,0-.61,0-.91-.06-.71-.11-1.45-.16-2.16,0-.2,0-.4,0-.61a9.36,9.36,0,0,1,0-.94c-.06-.4-.08-.81-.11-1.22h-.26a4.94,4.94,0,0,1-.68,0,.75.75,0,0,1-.21,0,.93.93,0,0,0-.39.26.47.47,0,0,0-.1.2,3,3,0,0,0-.21,1V112a1,1,0,0,0,0,.25c0,.84.06,1.65.08,2.46,0,.23,0,.43,0,.64s0,.53,0,.81H60.3V112a.86.86,0,0,0,0-.28,3.14,3.14,0,0,0-.18-1l-.13-.21a.85.85,0,0,0-.63-.25h-.18l-.18,0h-.42a.47.47,0,0,0-.18,0c0,.71,0,1.45,0,2.16,0,.2,0,.4,0,.61s0,.63,0,.94,0,.61,0,.91,0,.81,0,1.24c-.7,0-1.41-.1-2.11-.17,0-.26,0-.54,0-.82a7.34,7.34,0,0,0,.05-.81c0-.68.11-1.37.13-2.06,0-.4.05-.81.08-1.24l.08-1.22c0-.56.08-1.09.1-1.65.16,0,.29,0,.45,0,.31,0,.62,0,.94,0s.6,0,.91,0a2.48,2.48,0,0,0,.47,0Z"/><path class="cls-1" d="M72.91,107.1a2.36,2.36,0,0,0,.44-.11.44.44,0,0,0,.16,0h.08l.68-.15c.67-.16,1.33-.31,2-.41a3.87,3.87,0,0,1,.49,0,.77.77,0,0,1,.37,0s.08,0,.1,0a.84.84,0,0,1,.34.38A5.65,5.65,0,0,1,78,108c.21.81.42,1.6.66,2.41,0,.2.1.41.15.59s.16.53.24.81a2.74,2.74,0,0,0,.05.28.92.92,0,0,1,0,.28.58.58,0,0,1,0,.23,1.29,1.29,0,0,1-.18.88l-.16.16A4.86,4.86,0,0,1,78,114c-.73.23-1.46.4-2.19.56l-.63.12c-.34.08-.44.08-.78.16l-.78.12c-.73.1-1.46.21-2.2.26-.23,0-.44,0-.67,0a2.7,2.7,0,0,1-.94,0l-.19-.08a1.44,1.44,0,0,1-.49-.76c0-.07,0-.17-.06-.25a1.84,1.84,0,0,0-.05-.25,1.62,1.62,0,0,1,0-.31,9.37,9.37,0,0,1-.11-1,1.62,1.62,0,0,1,0-.31.74.74,0,0,1,0-.25v-.26c0-.17,0-.38.1-.56a1.1,1.1,0,0,1,.19-.3c.05,0,.05,0,.1-.08a3.23,3.23,0,0,1,.71-.2c.31-.08.65-.13,1-.18l1.31-.23a5,5,0,0,0,.62-.1,1.19,1.19,0,0,0,.32,0,1.4,1.4,0,0,0,.34-.05,1.67,1.67,0,0,1,.31,0,1.1,1.1,0,0,1,.29,0,.17.17,0,0,1,.1,0h0a0,0,0,0,0,0,0h.13l.68-.15a1.77,1.77,0,0,0,.32,0c.13.63.28,1.27.41,1.9a6.42,6.42,0,0,1-.81.18c-.23,0-.47.07-.7.12-.78.16-1.57.28-2.35.39-.34,0-.68.1-1,.12v.08c0,.13.05.28.07.4s0,.11,0,.13a.14.14,0,0,0,0,.1.46.46,0,0,0,.37.16,4.13,4.13,0,0,0,.78-.08c.6,0,1.23-.15,1.85-.25s1.1-.23,1.65-.39l.5-.15a1.25,1.25,0,0,0,.41-.23c0-.05,0-.05.08-.07a1,1,0,0,0,.08-.48,4.34,4.34,0,0,0-.16-1.2,10.07,10.07,0,0,0-.36-1.22,1.1,1.1,0,0,0-.32-.45.78.78,0,0,0-.34,0,1.83,1.83,0,0,0-.33,0,7,7,0,0,0-1.21.2h0s0,0,0,0l-.21,0-.42.08c-.26,0-.49.1-.75.13-.73.12-1.49.23-2.22.3a6.59,6.59,0,0,1-.76.1l-1,.08c-.08-.63-.16-1.29-.21-1.93l.91-.08c.68-.07,1.36-.15,2-.25l.87-.13a7,7,0,0,1,.78-.12Z"/><path class="cls-1" d="M94.39,101.83c.55-.33,1.12-.64,1.67-1a.75.75,0,0,1,.21-.12c.08-.06.13-.11.21-.16a3.77,3.77,0,0,0,.73-.71,1.67,1.67,0,0,0,.11-.23.64.64,0,0,0,0-.43.66.66,0,0,0-.11-.2,2.9,2.9,0,0,0-.2-.33l-.24-.38c-.16-.23-.29-.43-.42-.66s-.13-.21-.21-.31c.53-.33,1-.66,1.54-1,.08.15.19.28.29.43.29.4.55.79.81,1.19a2.24,2.24,0,0,1,.47,1.25,2.73,2.73,0,0,1,0,.4,4.19,4.19,0,0,1-.31.79,3.43,3.43,0,0,1-.42.58,4.62,4.62,0,0,1-.65.61,5,5,0,0,1-.61.41l-.13.1a.31.31,0,0,0-.1,0s0,0-.08,0l0,0c.13.21.23.41.36.61l1.1,1.83c.08.18.18.33.26.48-.6.36-1.2.71-1.8,1-.13-.2-.24-.4-.37-.61l-1-1.87-.23-.46-.08,0a.35.35,0,0,1-.08,0l-.65.33a4.49,4.49,0,0,1-1,.33,2.07,2.07,0,0,1-.73.08,2.69,2.69,0,0,1-.81-.1,2,2,0,0,1-1.23-1.19c-.2-.46-.41-.89-.6-1.32-.07-.16-.15-.33-.23-.49h0c.55-.25,1.1-.53,1.64-.81a2,2,0,0,1,.16.33c.1.23.24.46.34.69s.13.28.21.4.13.23.18.36a1.67,1.67,0,0,0,.13.2.68.68,0,0,0,.45.25h.23a3.8,3.8,0,0,0,1.07-.38Z"/><path class="cls-1" d="M84,103.9c.24-.1.47-.18.71-.26s.52-.15.78-.2l.5-.08a5.38,5.38,0,0,1,.88,0,6,6,0,0,1,1,.28c.13,0,.15.08.29.13a3.85,3.85,0,0,1,.52.38,6.89,6.89,0,0,1,.52.56,8.5,8.5,0,0,1,1.07,1.85c.31.71.63,1.4,1,2.11.07.2.15.38.23.59l-1.91.83c-.07-.2-.15-.38-.23-.58-.29-.71-.6-1.42-.89-2.13a5.56,5.56,0,0,0-.57-1,2.19,2.19,0,0,0-.47-.49l-.24-.15a3.21,3.21,0,0,0-1-.28,1.48,1.48,0,0,0-.42,0c-.21,0-.42,0-.63.1a4.63,4.63,0,0,1-.52.18,5.09,5.09,0,0,1-.49.18l-.84.28-.94.3-.44.15c.21.69.41,1.38.65,2.06a3.68,3.68,0,0,0,.18.59c.08.3.18.6.26.88s.19.61.29.89.23.79.37,1.2c-.63.17-1.28.38-1.91.53-.08-.25-.16-.53-.24-.79-.2-.81-.44-1.6-.65-2.38,0-.16-.08-.28-.13-.41-.1-.41-.21-.81-.31-1.19s-.24-.82-.34-1.2c-.16-.53-.29-1.06-.44-1.6,0,0,0,0-.06,0h.08s.08,0,.13,0a1.57,1.57,0,0,0,.45-.13,13.1,13.1,0,0,0,1.51-.45l1.46-.46a5.7,5.7,0,0,1,.73-.25Z"/></g></g></g></svg>