<svg version="1" xmlns="http://www.w3.org/2000/svg" width="533.333" height="533.333" viewBox="0 0 400.000000 400.000000"><path d="M183.1 26.2c-.4 1.3-24.8 70.9-54 154.8-29.3 83.9-54.3 154.3-55.6 156.6-4.7 8-15.9 15.5-29.2 19.5-3.8 1.1-4.3 1.6-4.3 4.1v2.8h70.1l-.3-2.6c-.3-2.2-1.5-3.1-8.8-6-4.7-1.9-9.8-4.8-11.5-6.4-2.8-2.9-3-3.5-2.9-10.3.1-6.6 1.3-10.5 14-46.4l13.9-39.3h114.1l13.2 39.3c7.3 21.5 13.2 40.7 13.2 42.5 0 10.3-5 17.6-14.5 21.1-3.1 1.2-6 2.1-6.5 2.1-.6 0-1 1.3-1 3v3h130v-2.5c0-1.4-.6-2.8-1.2-3-14.7-5.1-20.6-9.6-26-20.2-1.9-3.7-27.1-76-55.9-160.6L227.5 24h-21.8c-21.6 0-21.8 0-22.6 2.2zM200 163.3c13.9 43.3 25.1 79 24.8 79.2-.3.3-24.6.4-54 .3l-53.6-.3 27.7-77.5c30.9-86.5 29-81.4 29.5-80.9.1.2 11.7 35.9 25.6 79.2z"/></svg>